<svg width="46" height="46" viewBox="0 0 46 46" fill="none" xmlns="http://www.w3.org/2000/svg">
<path d="M36.708 6.19851H32.5482V4.8119C32.5482 4.44415 32.4021 4.09146 32.1421 3.83142C31.882 3.57138 31.5293 3.42529 31.1616 3.42529C30.7938 3.42529 30.4411 3.57138 30.1811 3.83142C29.9211 4.09146 29.775 4.44415 29.775 4.8119V6.19851H15.9089V4.8119C15.9089 4.44415 15.7628 4.09146 15.5028 3.83142C15.2427 3.57138 14.89 3.42529 14.5223 3.42529C14.1545 3.42529 13.8018 3.57138 13.5418 3.83142C13.2818 4.09146 13.1357 4.44415 13.1357 4.8119V6.19851H8.97585C8.24035 6.19851 7.53497 6.49069 7.01489 7.01077C6.49481 7.53084 6.20264 8.23622 6.20264 8.97173V36.7039C6.20264 37.4394 6.49481 38.1448 7.01489 38.6648C7.53497 39.1849 8.24035 39.4771 8.97585 39.4771H36.708C37.4435 39.4771 38.1489 39.1849 38.669 38.6648C39.1891 38.1448 39.4812 37.4394 39.4812 36.7039V8.97173C39.4812 8.23622 39.1891 7.53084 38.669 7.01077C38.1489 6.49069 37.4435 6.19851 36.708 6.19851ZM13.1357 11.7449V10.3583C13.1357 9.99058 13.2818 9.63789 13.5418 9.37785C13.8018 9.11781 14.1545 8.97173 14.5223 8.97173C14.89 8.97173 15.2427 9.11781 15.5028 9.37785C15.7628 9.63789 15.9089 9.99058 15.9089 10.3583V11.7449C15.9089 12.1127 15.7628 12.4654 15.5028 12.7254C15.2427 12.9855 14.89 13.1315 14.5223 13.1315C14.1545 13.1315 13.8018 12.9855 13.5418 12.7254C13.2818 12.4654 13.1357 12.1127 13.1357 11.7449ZM31.6036 22.2658L27.364 25.7653L28.657 30.9841C28.6899 31.1166 28.683 31.2559 28.637 31.3845C28.5911 31.5131 28.5082 31.6252 28.3988 31.7069C28.2787 31.7954 28.1336 31.8433 27.9845 31.8438C27.8626 31.8431 27.743 31.8102 27.6379 31.7485L22.8419 28.9354L18.0512 31.7554C17.933 31.8255 17.7967 31.8588 17.6595 31.8512C17.5223 31.8437 17.3905 31.7955 17.2807 31.7129C17.1709 31.6302 17.0882 31.5168 17.043 31.3871C16.9978 31.2573 16.9922 31.1171 17.0268 30.9841L18.3199 25.7584L14.0803 22.2658C13.9733 22.1779 13.895 22.06 13.8556 21.9272C13.8163 21.7945 13.8175 21.653 13.8593 21.5209C13.9011 21.3889 13.9814 21.2724 14.09 21.1864C14.1986 21.1005 14.3305 21.049 14.4686 21.0387L20.0566 20.6071L22.2058 15.6309C22.2596 15.5069 22.3485 15.4013 22.4615 15.3271C22.5745 15.2529 22.7067 15.2134 22.8419 15.2134C22.9771 15.2134 23.1094 15.2529 23.2224 15.3271C23.3354 15.4013 23.4243 15.5069 23.478 15.6309L25.6273 20.6071L31.2153 21.0387C31.3534 21.049 31.4853 21.1005 31.5938 21.1864C31.7024 21.2724 31.7828 21.3889 31.8246 21.5209C31.8663 21.653 31.8676 21.7945 31.8282 21.9272C31.7888 22.06 31.7106 22.1779 31.6036 22.2658ZM32.5482 11.7449C32.5482 12.1127 32.4021 12.4654 32.1421 12.7254C31.882 12.9855 31.5293 13.1315 31.1616 13.1315C30.7938 13.1315 30.4411 12.9855 30.1811 12.7254C29.9211 12.4654 29.775 12.1127 29.775 11.7449V10.3583C29.775 9.99058 29.9211 9.63789 30.1811 9.37785C30.4411 9.11781 30.7938 8.97173 31.1616 8.97173C31.5293 8.97173 31.882 9.11781 32.1421 9.37785C32.4021 9.63789 32.5482 9.99058 32.5482 10.3583V11.7449Z" fill="#D9D9D9"/>
</svg>
