<svg width="46" height="46" viewBox="0 0 46 46" fill="none" xmlns="http://www.w3.org/2000/svg">
<path d="M41.1894 10.3582V32.5439C41.1894 33.2794 40.8972 33.9848 40.3771 34.5049C39.857 35.0249 39.1517 35.3171 38.4162 35.3171H27.9421L25.571 39.4665C25.3284 39.8909 24.9779 40.2435 24.5551 40.4888C24.1324 40.7341 23.6523 40.8633 23.1635 40.8633C22.6747 40.8633 22.1946 40.7341 21.7718 40.4888C21.349 40.2435 20.9986 39.8909 20.756 39.4665L18.3849 35.3171H7.91079C7.17529 35.3171 6.46991 35.0249 5.94983 34.5049C5.42975 33.9848 5.13757 33.2794 5.13757 32.5439V10.3582C5.13757 9.62267 5.42975 8.9173 5.94983 8.39722C6.46991 7.87714 7.17529 7.58496 7.91079 7.58496H38.4162C39.1517 7.58496 39.857 7.87714 40.3771 8.39722C40.8972 8.9173 41.1894 9.62267 41.1894 10.3582Z" fill="#00101D"/>
</svg>
