<svg width="80" height="64" viewBox="0 0 80 64" fill="none" xmlns="http://www.w3.org/2000/svg">
<path d="M63 1.40039C71.6304 1.40039 78.5996 8.68835 78.5996 17.2891C78.5994 25.9045 71.6155 32.8887 63 32.8887C54.3845 32.8887 47.4006 25.9045 47.4004 17.2891C47.4004 8.68835 54.3696 1.40039 63 1.40039Z" fill="#D9D9D9" stroke="#D9D9D9" stroke-width="1.2"/>
<path d="M15 29C19.1788 29 22.8561 26.8627 25.0049 23.623C24.3006 24.3549 23.5487 25.0776 22.7559 25.7363C20.7559 27.3979 18.108 29 15 29ZM15 29C10.821 29 7.14289 26.863 4.99414 23.623C5.69852 24.3551 6.45112 25.0775 7.24414 25.7363C9.24409 27.3979 11.892 29 15 29Z" stroke="#D9D9D9" stroke-width="6"/>
<path d="M5.63596 9.54395L29.636 3.54394" stroke="#D9D9D9" stroke-width="3" stroke-linecap="round"/>
<path d="M13.5463 61.55C11.6382 62.504 9.42432 61.1087 9.76799 59.0033C10.7306 53.1063 13.5188 47.6144 17.7983 43.3349C22.5945 38.5387 30.6282 36.9831 36.1788 39.5453C37.3661 40.0934 38.7907 40.0562 39.9854 39.5245C45.1019 37.2474 53.6498 38.6032 58.3815 43.3349C62.661 47.6144 65.4492 53.1063 66.4118 59.0033C66.7555 61.1087 64.5416 62.504 62.6336 61.55L39.3733 49.9198C38.5654 49.5159 37.6144 49.5159 36.8066 49.9198L13.5463 61.55Z" fill="#D9D9D9"/>
</svg>
