<svg width="204" height="218" viewBox="0 0 204 218" fill="none" xmlns="http://www.w3.org/2000/svg">
<path d="M182.402 66.2705C185.834 66.2705 189.125 67.6431 191.551 70.085C193.976 72.5268 195.339 75.8382 195.339 79.29V179.443C195.339 182.895 193.976 186.207 191.551 188.648C189.125 191.09 185.834 192.463 182.402 192.463H135.723L125.232 210.941C124.101 212.933 122.466 214.589 120.494 215.741C118.522 216.893 116.282 217.5 114.002 217.5C111.721 217.5 109.481 216.893 107.509 215.741C105.66 214.661 104.107 213.139 102.988 211.312L102.77 210.941L92.2802 192.463H45.6005C42.2756 192.463 39.0832 191.175 36.6815 188.874L36.452 188.648C34.0263 186.207 32.6639 182.895 32.6639 179.443V79.29L32.6678 78.9668C32.75 75.6319 34.1021 72.4505 36.452 70.085L36.6815 69.8594C39.0832 67.5586 42.2756 66.2705 45.6005 66.2705H182.402Z" fill="#0280C2" stroke="black"/>
<path d="M203.262 62.3943C203.392 64.0493 202.864 65.6885 201.793 66.9512C200.722 68.2139 199.197 68.9967 197.553 69.1274L11.5843 83.9139C9.94021 84.0446 8.31189 83.5126 7.05754 82.4347C5.80319 81.3569 5.02555 79.8216 4.89569 78.1666C4.76583 76.5116 5.29439 74.8725 6.3651 73.6098C7.43581 72.3471 8.96095 71.5643 10.605 71.4336L32.2394 69.7134L65.0423 15.7656C66.0367 14.1354 67.3891 12.7563 68.9954 11.7341C70.6018 10.7119 72.4195 10.074 74.309 9.86916C76.1985 9.66436 78.1094 9.89818 79.8952 10.5527C81.6809 11.2071 83.2939 12.2649 84.6102 13.6447L95.4792 24.4753L95.6483 24.6424C96.2825 25.3261 97.0617 25.8571 97.9279 26.1957C98.7942 26.5344 99.7251 26.672 100.652 26.5983C101.578 26.5247 102.476 26.2416 103.279 25.7703C104.081 25.2989 104.768 24.6514 105.288 23.8759L105.429 23.6842L114.474 11.2702C115.559 9.69949 116.987 8.39996 118.648 7.47139C120.31 6.54281 122.16 6.00989 124.058 5.91355C125.956 5.81721 127.851 6.16001 129.597 6.91562C131.343 7.67124 132.893 8.81957 134.13 10.2724L174.939 58.3672L196.574 56.647C198.218 56.5163 199.846 57.0484 201.1 58.1262C202.355 59.204 203.132 60.7393 203.262 62.3943Z" fill="#00101D"/>
<path d="M153.384 93.98C165.999 93.98 176.113 104.682 176.114 117.249C176.114 129.865 165.95 140.117 153.384 140.117C140.818 140.117 130.655 129.865 130.655 117.249C130.655 104.682 140.769 93.98 153.384 93.98Z" fill="#D9D9D9" stroke="black" stroke-width="4.00447"/>
<path d="M73.8535 94.8403H108.052" stroke="#00101D" stroke-width="6" stroke-linecap="round"/>
<path d="M73.3506 167.073H169.114" stroke="#00101D" stroke-width="4.075" stroke-linecap="round"/>
<path d="M71.3132 177.261L71.3132 156.886" stroke="#00101D" stroke-width="3.05625" stroke-linecap="round"/>
<ellipse cx="91.179" cy="118.683" rx="10.697" ry="10.6968" fill="#00101D"/>
<path d="M89.6665 167.894C87.4629 169.226 84.6646 167.761 84.8749 165.195C85.4641 158.007 88.2889 151.13 93.0249 145.569C98.3328 139.335 107.849 136.689 114.774 139.236C116.256 139.781 117.966 139.598 119.352 138.843C125.288 135.61 135.704 136.416 141.853 141.653C147.415 146.389 151.3 152.727 153.027 159.729C153.644 162.229 151.115 164.122 148.727 163.158L119.619 151.41C118.608 151.002 117.464 151.093 116.53 151.657L89.6665 167.894Z" fill="#00101D"/>
</svg>
