<svg width="37" height="37" viewBox="0 0 37 37" fill="none" xmlns="http://www.w3.org/2000/svg">
<path d="M13.6497 16.8291C13.8605 16.7074 14.0356 16.5323 14.1573 16.3215C14.279 16.1106 14.343 15.8714 14.343 15.628V3.1485C14.3417 2.92743 14.2876 2.70986 14.1852 2.51393C14.0828 2.31801 13.9351 2.14941 13.7543 2.02221C13.5734 1.895 13.3648 1.81286 13.1458 1.78265C12.9268 1.75245 12.7038 1.77504 12.4953 1.84855C8.4481 3.28094 5.04457 6.11002 2.89654 9.82722C0.748508 13.5444 -0.00313461 17.9059 0.776731 22.1277C0.817155 22.346 0.909412 22.5514 1.04574 22.7267C1.18208 22.9019 1.3585 23.0419 1.56016 23.1347C1.74191 23.2197 1.94018 23.2635 2.14081 23.263C2.38418 23.2631 2.62329 23.1991 2.83411 23.0775L13.6497 16.8291ZM11.5697 5.24921V14.8272L3.27089 19.6162C3.25009 19.3545 3.25009 19.091 3.25009 18.8345C3.25255 16.0238 4.03057 13.2682 5.49847 10.8713C6.96637 8.47432 9.06723 6.52889 11.5697 5.24921ZM36.5287 18.8345C36.5301 22.7918 35.2292 26.6395 32.8268 29.7841C30.4244 32.9286 27.054 35.1953 23.2355 36.2343C19.4171 37.2733 15.3629 37.0268 11.6984 35.5331C8.03391 34.0393 4.9628 31.3812 2.95891 27.9688C2.86549 27.8112 2.80424 27.6366 2.77869 27.4552C2.75314 27.2737 2.76381 27.089 2.81006 26.9118C2.85632 26.7345 2.93725 26.5681 3.04818 26.4223C3.15911 26.2765 3.29784 26.1541 3.45635 26.0622L17.1162 18.1117V2.1952C17.1162 1.82745 17.2623 1.47476 17.5223 1.21472C17.7823 0.954682 18.135 0.808594 18.5028 0.808594C21.6484 0.810199 24.7389 1.63455 27.4675 3.19981C30.1961 4.76507 32.4678 7.01679 34.0571 9.73142C34.0761 9.75915 34.0935 9.78688 34.1108 9.81635C34.1281 9.84581 34.1455 9.88048 34.1611 9.91168C35.7163 12.628 36.5327 15.7044 36.5287 18.8345Z" fill="#D9D9D9"/>
</svg>
