<svg width="33" height="34" viewBox="0 0 33 34" fill="none" xmlns="http://www.w3.org/2000/svg">
<path d="M32.6905 5.74481C32.69 4.70756 32.3986 3.69124 31.8495 2.81127C31.3004 1.9313 30.5155 1.22295 29.584 0.766661C28.6525 0.31037 27.6117 0.124428 26.5798 0.229951C25.548 0.335474 24.5664 0.728233 23.7465 1.36362C22.9266 1.99901 22.3014 2.85157 21.9417 3.82448C21.5821 4.79738 21.5025 5.85164 21.7119 6.86753C21.9213 7.88341 22.4115 8.82021 23.1266 9.57154C23.8417 10.3229 24.7532 10.8586 25.7575 11.1179V14.0645C25.7575 14.4322 25.6114 14.7849 25.3514 15.0449C25.0913 15.305 24.7386 15.4511 24.3709 15.4511H9.11819C8.64571 15.4509 8.17671 15.5318 7.73158 15.6903V11.1179C9.03868 10.7804 10.1778 9.97781 10.9355 8.86051C11.6931 7.74321 12.0173 6.38794 11.8472 5.04873C11.6771 3.70953 11.0244 2.47833 10.0115 1.58593C8.99856 0.693521 7.69493 0.201174 6.34497 0.201174C4.995 0.201174 3.69138 0.693521 2.67845 1.58593C1.66553 2.47833 1.01284 3.70953 0.842743 5.04873C0.672642 6.38794 0.996802 7.74321 1.75446 8.86051C2.51212 9.97781 3.65126 10.7804 4.95836 11.1179V22.5574C3.65126 22.8949 2.51212 23.6975 1.75446 24.8148C0.996802 25.9321 0.672642 27.2874 0.842743 28.6266C1.01284 29.9658 1.66553 31.197 2.67845 32.0894C3.69138 32.9818 4.995 33.4742 6.34497 33.4742C7.69493 33.4742 8.99856 32.9818 10.0115 32.0894C11.0244 31.197 11.6771 29.9658 11.8472 28.6266C12.0173 27.2874 11.6931 25.9321 10.9355 24.8148C10.1778 23.6975 9.03868 22.8949 7.73158 22.5574V19.6109C7.73158 19.2431 7.87767 18.8904 8.13771 18.6304C8.39775 18.3704 8.75043 18.2243 9.11819 18.2243H24.3709C25.4741 18.2243 26.5322 17.786 27.3123 17.0059C28.0924 16.2258 28.5307 15.1677 28.5307 14.0645V11.1179C29.7209 10.8088 30.7749 10.1136 31.5276 9.1413C32.2804 8.16899 32.6894 6.97446 32.6905 5.74481ZM3.57175 5.74481C3.57175 5.19632 3.7344 4.66015 4.03912 4.20409C4.34385 3.74804 4.77697 3.39259 5.28371 3.18269C5.79044 2.97279 6.34805 2.91788 6.886 3.02488C7.42395 3.13189 7.91809 3.39601 8.30593 3.78385C8.69377 4.17169 8.95789 4.66583 9.0649 5.20378C9.1719 5.74173 9.11699 6.29934 8.90709 6.80607C8.69719 7.31281 8.34174 7.74593 7.88569 8.05065C7.42963 8.35538 6.89346 8.51803 6.34497 8.51803C5.60947 8.51803 4.90409 8.22585 4.38401 7.70577C3.86393 7.18569 3.57175 6.48031 3.57175 5.74481ZM9.11819 27.9305C9.11819 28.479 8.95554 29.0152 8.65081 29.4713C8.34609 29.9273 7.91297 30.2828 7.40623 30.4927C6.89949 30.7026 6.34189 30.7575 5.80394 30.6505C5.26599 30.5435 4.77185 30.2793 4.38401 29.8915C3.99617 29.5037 3.73204 29.0095 3.62504 28.4716C3.51803 27.9336 3.57295 27.376 3.78285 26.8693C3.99275 26.3625 4.3482 25.9294 4.80425 25.6247C5.26031 25.32 5.79648 25.1573 6.34497 25.1573C7.08047 25.1573 7.78585 25.4495 8.30593 25.9696C8.82601 26.4897 9.11819 27.195 9.11819 27.9305Z" fill="#D9D9D9"/>
</svg>
