<svg width="40" height="40" viewBox="0 0 40 40" fill="none" xmlns="http://www.w3.org/2000/svg">
<path d="M13.3315 3.71814C13.1936 3.37659 13.197 2.99425 13.341 2.65522C13.485 2.31619 13.7578 2.04826 14.0993 1.91035C14.4409 1.77244 14.8232 1.77586 15.1623 1.91986C15.5013 2.06386 15.7692 2.33663 15.9071 2.67818L17.2937 6.1447C17.362 6.31382 17.3963 6.49473 17.3947 6.67711C17.3931 6.85949 17.3555 7.03975 17.2842 7.20762C17.2129 7.37549 17.1093 7.52767 16.9791 7.65548C16.849 7.78328 16.695 7.88421 16.5259 7.95249C16.3568 8.02078 16.1759 8.05508 15.9935 8.05345C15.8111 8.05182 15.6308 8.01428 15.463 7.94298C15.2951 7.87168 15.1429 7.76802 15.0151 7.6379C14.8873 7.50779 14.7864 7.35378 14.7181 7.18466L13.3315 3.71814ZM3.00647 15.5788L6.47299 16.9654C6.64211 17.0337 6.82302 17.068 7.0054 17.0664C7.18777 17.0648 7.36804 17.0272 7.53591 16.9559C7.70378 16.8846 7.85596 16.781 7.98376 16.6509C8.11157 16.5207 8.2125 16.3667 8.28078 16.1976C8.34906 16.0285 8.38337 15.8476 8.38174 15.6652C8.38011 15.4828 8.34257 15.3026 8.27127 15.1347C8.19997 14.9668 8.0963 14.8146 7.96619 14.6868C7.83608 14.559 7.68206 14.4581 7.51295 14.3898L4.04643 13.0032C3.70488 12.8653 3.32253 12.8687 2.98351 13.0127C2.64448 13.1567 2.37654 13.4295 2.23864 13.771C2.10073 14.1126 2.10415 14.4949 2.24815 14.834C2.39214 15.173 2.66492 15.4409 3.00647 15.5788ZM37.325 24.0961L33.8585 22.7095C33.517 22.5716 33.1346 22.575 32.7956 22.719C32.4566 22.863 32.1886 23.1358 32.0507 23.4773C31.9128 23.8189 31.9162 24.2012 32.0602 24.5402C32.2042 24.8793 32.477 25.1472 32.8185 25.2851L36.2851 26.6717C36.6266 26.8096 37.009 26.8062 37.348 26.6622C37.687 26.5182 37.9549 26.2454 38.0929 25.9039C38.2308 25.5623 38.2273 25.18 38.0833 24.841C37.9393 24.5019 37.6666 24.234 37.325 24.0961ZM25.6134 32.4903C25.4755 32.1487 25.2075 31.8759 24.8685 31.7319C24.5295 31.5879 24.1471 31.5845 23.8056 31.7224C23.464 31.8603 23.1913 32.1283 23.0473 32.4673C22.9033 32.8063 22.8999 33.1887 23.0378 33.5302L24.4244 36.9967C24.5623 37.3383 24.8302 37.6111 25.1692 37.7551C25.5083 37.8991 25.8906 37.9025 26.2322 37.7646C26.5737 37.6267 26.8465 37.3587 26.9905 37.0197C27.1345 36.6807 27.1379 36.2983 27 35.9568L25.6134 32.4903ZM39.216 0.861727C39.0888 0.726018 38.9356 0.617285 38.7655 0.542001C38.5955 0.466717 38.412 0.426421 38.226 0.42351C38.04 0.420599 37.8554 0.455133 37.683 0.525057C37.5107 0.594982 37.3541 0.698866 37.2228 0.830528L28.1387 9.91455L27.2062 8.98205C26.6911 8.46636 26.0794 8.05726 25.4061 7.77814C24.7328 7.49902 24.011 7.35536 23.2821 7.35536C22.5533 7.35536 21.8315 7.49902 21.1582 7.77814C20.4849 8.05726 19.8732 8.46636 19.358 8.98205L16.3768 11.9581C16.3124 12.0224 16.2612 12.0989 16.2263 12.1831C16.1915 12.2672 16.1735 12.3575 16.1735 12.4486C16.1735 12.5397 16.1915 12.6299 16.2263 12.7141C16.2612 12.7982 16.3124 12.8747 16.3768 12.9391L27.0711 23.6264C27.1354 23.6908 27.2119 23.742 27.2961 23.7769C27.3802 23.8117 27.4705 23.8297 27.5616 23.8297C27.6527 23.8297 27.7429 23.8117 27.8271 23.7769C27.9112 23.742 27.9877 23.6908 28.0521 23.6264L30.9536 20.7249C32.0051 19.6936 32.6148 18.294 32.6539 16.8216C32.6682 16.0772 32.5318 15.3377 32.2526 14.6475C31.9735 13.9573 31.5576 13.3307 31.0298 12.8056L30.0973 11.8749L39.1449 2.83244C39.4086 2.57652 39.5633 2.2286 39.5765 1.86137C39.5898 1.49413 39.4606 1.13598 39.216 0.861727ZM12.8237 13.31C12.6923 13.1786 12.5359 13.075 12.3637 13.0052C12.1915 12.9354 12.0071 12.901 11.8213 12.9039C11.6355 12.9068 11.4522 12.947 11.2823 13.0221C11.1124 13.0973 10.9593 13.2058 10.8321 13.3412C10.5876 13.6155 10.4584 13.9736 10.4716 14.3408C10.4849 14.7081 10.6395 15.056 10.9032 15.3119L11.9622 16.3709L9.30514 19.0246C8.77854 19.5499 8.36366 20.1764 8.08545 20.8662C7.80725 21.5561 7.67146 22.2951 7.68627 23.0388C7.72288 24.5108 8.33007 25.9111 9.37967 26.9438L10.2463 27.8001L1.18481 36.8459C0.92914 37.0949 0.776368 37.4309 0.756784 37.7873C0.737201 38.1436 0.852236 38.4943 1.07908 38.7699C1.20366 38.9144 1.35672 39.0316 1.52869 39.1143C1.70066 39.1969 1.88784 39.2432 2.07852 39.2502C2.26919 39.2572 2.45926 39.2248 2.63682 39.1549C2.81439 39.0851 2.97563 38.9794 3.11047 38.8444L12.1927 29.7604L13.1235 30.6929C14.1662 31.7307 15.5774 32.3133 17.0485 32.3133C18.5196 32.3133 19.9308 31.7307 20.9734 30.6929L23.6323 28.0375L24.7312 29.1381C24.86 29.267 25.0129 29.3692 25.1813 29.4389C25.3496 29.5086 25.53 29.5445 25.7122 29.5445C25.8944 29.5445 26.0748 29.5086 26.2431 29.4389C26.4114 29.3692 26.5644 29.267 26.6932 29.1381C26.822 29.0093 26.9242 28.8564 26.9939 28.688C27.0637 28.5197 27.0996 28.3393 27.0996 28.1571C27.0996 27.9749 27.0637 27.7945 26.9939 27.6262C26.9242 27.4579 26.822 27.3049 26.6932 27.1761L12.8237 13.31Z" fill="#D9D9D9"/>
</svg>
